<svg width="10" height="14" viewBox="0 0 10 14" fill="none" xmlns="http://www.w3.org/2000/svg">
<path d="M3.5 0C2.84689 0 2.29127 0.417403 2.08535 1H1.5C0.671573 1 0 1.67157 0 2.5V12.5C0 13.3284 0.671573 14 1.5 14H8.5C9.32843 14 10 13.3284 10 12.5V2.5C10 1.67157 9.32843 1 8.5 1H7.91465C7.70873 0.417404 7.15311 0 6.5 0H3.5ZM3 1.5C3 1.22386 3.22386 1 3.5 1H6.5C6.77614 1 7 1.22386 7 1.5C7 1.77614 6.77614 2 6.5 2H3.5C3.22386 2 3 1.77614 3 1.5ZM7.85355 6.85355L4.85355 9.85355C4.65829 10.0488 4.34171 10.0488 4.14645 9.85355L2.64645 8.35355C2.45118 8.15829 2.45118 7.84171 2.64645 7.64645C2.84171 7.45118 3.15829 7.45118 3.35355 7.64645L4.5 8.79289L7.14645 6.14645C7.34171 5.95118 7.65829 5.95118 7.85355 6.14645C8.04882 6.34171 8.04882 6.65829 7.85355 6.85355Z" fill="#7000FF"/>
</svg>
