<svg width="13" height="13" viewBox="0 0 13 13" fill="none" xmlns="http://www.w3.org/2000/svg">
<path d="M2.5 0C1.67157 0 1 0.671573 1 1.5V3.5C1 4.32843 1.67157 5 2.5 5H3V6.88441C2.92641 6.92709 2.8571 6.97992 2.7941 7.04292L1.04297 8.79405C0.652446 9.18458 0.652445 9.81774 1.04297 10.2083L2.7941 11.9594C3.18463 12.3499 3.81779 12.3499 4.20832 11.9594L5.95945 10.2083C6.02312 10.1446 6.07641 10.0745 6.11932 10H8V10.5C8 11.3284 8.67157 12 9.5 12H11.5C12.3284 12 13 11.3284 13 10.5V8.5C13 7.67157 12.3284 7 11.5 7H9.5C8.67157 7 8 7.67157 8 8.5V9H6.11798C6.0753 8.92639 6.02246 8.85706 5.95945 8.79405L4.20832 7.04292C4.14463 6.97923 4.07449 6.92593 4 6.88302V5H4.5C5.32843 5 6 4.32843 6 3.5V1.5C6 0.671573 5.32843 0 4.5 0H2.5Z" fill="#7000FF"/>
</svg>
