<svg width="12" height="12" viewBox="0 0 12 12" fill="none" xmlns="http://www.w3.org/2000/svg">
<path d="M2.5 0C1.11929 0 0 1.11929 0 2.5V9.5C0 10.0096 0.152446 10.4835 0.414219 10.8787L4.79796 6.49499C5.46185 5.8311 6.53823 5.8311 7.20212 6.49499L11.5858 10.8787C11.8476 10.4835 12 10.0095 12 9.5V2.5C12 1.11929 10.8807 0 9.5 0H2.5ZM9.49999 3.50207C9.49999 4.0555 9.05135 4.50414 8.49792 4.50414C7.94449 4.50414 7.49585 4.0555 7.49585 3.50207C7.49585 2.94864 7.94449 2.5 8.49792 2.5C9.05135 2.5 9.49999 2.94864 9.49999 3.50207ZM10.8787 11.5858L6.49501 7.2021C6.22165 6.92873 5.77843 6.92873 5.50506 7.2021L1.12134 11.5858C1.51655 11.8476 1.99047 12 2.5 12H9.5C10.0095 12 10.4835 11.8476 10.8787 11.5858Z" fill="#7000FF"/>
</svg>
