<svg width="120" height="120" viewBox="0 0 120 120" fill="none" xmlns="http://www.w3.org/2000/svg">
<rect width="120" height="120" rx="60" fill="#E6E6E6"/>
<path d="M50.9277 45.6774C50.2374 45.6774 49.6777 46.237 49.6777 46.9274C49.6777 47.6177 50.2374 48.1774 50.9277 48.1774H68.4277C69.1181 48.1774 69.6777 47.6177 69.6777 46.9274C69.6777 46.237 69.1181 45.6774 68.4277 45.6774H50.9277ZM60.5616 50.5435C60.0735 50.0553 59.282 50.0553 58.7939 50.5435L52.0439 57.2935C51.5557 57.7816 51.5557 58.5731 52.0439 59.0613C52.532 59.5494 53.3235 59.5494 53.8116 59.0613L58.4277 54.4451V72.4274C58.4277 73.1177 58.9874 73.6774 59.6777 73.6774C60.3681 73.6774 60.9277 73.1177 60.9277 72.4274V54.4451L65.5439 59.0613C66.032 59.5494 66.8235 59.5494 67.3116 59.0613C67.7998 58.5731 67.7998 57.7816 67.3116 57.2935L60.5616 50.5435Z" fill="#242424"/>
</svg>
