<svg width="57" height="32" viewBox="0 0 57 32" fill="none" xmlns="http://www.w3.org/2000/svg">
<g clip-path="url(#clip0_95_22338)">
<path d="M4.06377 0.170654H1.75977V2.47465H4.06377V0.170654Z" fill="white"/>
<path d="M4.00555 12.16V3.86667H1.82422V12.16H4.00555ZM18.4802 12.2667V10.208C18.2163 10.2118 17.9524 10.1957 17.6909 10.16C17.4926 10.1449 17.305 10.0642 17.1576 9.93067C17.0304 9.79386 16.9501 9.62015 16.9282 9.43467C16.8924 9.16956 16.8763 8.90215 16.8802 8.63467V5.73333H18.4802V3.86667H16.8802V0.666667H14.6936V8.66667C14.6823 9.24237 14.7414 9.8173 14.8696 10.3787C14.9678 10.7867 15.1741 11.1606 15.4669 11.4613C15.762 11.7531 16.1306 11.9595 16.5336 12.0587C17.0779 12.1917 17.6373 12.2527 18.1976 12.24L18.4802 12.2667ZM30.9976 12.1867V0H28.8002V12.16L30.9976 12.1867ZM12.6082 4.72C12.2791 4.38537 11.8825 4.12476 11.4447 3.95554C11.007 3.78632 10.5381 3.71239 10.0696 3.73867C9.57463 3.73202 9.08506 3.84162 8.64022 4.05867C8.2223 4.26697 7.85747 4.56795 7.57355 4.93867L7.45622 5.09333V3.86667H5.32289V12.16H7.46689V8.048C7.46413 7.99826 7.46413 7.94841 7.46689 7.89867C7.43388 7.27385 7.63981 6.65988 8.04289 6.18133C8.21954 5.99232 8.43355 5.84209 8.67134 5.74018C8.90914 5.63827 9.16552 5.5869 9.42422 5.58933C9.69067 5.56944 9.95813 5.61103 10.206 5.7109C10.4538 5.81077 10.6753 5.96625 10.8536 6.16533C11.1977 6.62492 11.366 7.19244 11.3282 7.76533V12.16H13.5362V7.46667C13.5968 6.45381 13.2644 5.45662 12.6082 4.68267V4.72ZM27.6749 8C27.6782 7.42677 27.5714 6.85825 27.3602 6.32533C27.156 5.81701 26.8574 5.35194 26.4802 4.95467C26.0985 4.55907 25.6391 4.24675 25.1309 4.03733C24.5807 3.81329 23.9915 3.70089 23.3976 3.70667C22.8181 3.70183 22.2441 3.81809 21.7122 4.048C20.6787 4.48067 19.8569 5.30251 19.4242 6.336C19.1969 6.86119 19.0807 7.42773 19.0829 8C19.0778 8.57786 19.1884 9.15089 19.4082 9.68533C19.6124 10.1962 19.915 10.6619 20.2989 11.056C20.6965 11.4497 21.1676 11.7614 21.6856 11.9733C22.2484 12.2059 22.8526 12.3221 23.4616 12.3147C24.1587 12.3334 24.8514 12.1972 25.4896 11.9159C26.1278 11.6346 26.6957 11.2152 27.1522 10.688L25.6002 9.504C25.3274 9.79654 24.9971 10.0295 24.63 10.1883C24.2629 10.3471 23.8669 10.4282 23.4669 10.4267C22.9333 10.4515 22.4059 10.3038 21.9629 10.0053C21.578 9.72076 21.3 9.31501 21.1736 8.85333V8.77867H27.6749V8ZM21.1789 7.23733C21.1789 6.62933 21.8776 5.568 23.3762 5.568C24.8749 5.568 25.5789 6.63467 25.5789 7.232L21.1789 7.23733Z" fill="white"/>
<path d="M33.6374 11.0027C33.5453 10.7899 33.3756 10.6202 33.1628 10.528C33.0553 10.4806 32.9389 10.457 32.8214 10.4587C32.7023 10.4569 32.5841 10.4805 32.4748 10.528C32.3696 10.5743 32.2739 10.6394 32.1921 10.72C32.1103 10.8009 32.0451 10.8969 32.0001 11.0027C31.9527 11.1102 31.929 11.2266 31.9308 11.344C31.9289 11.4632 31.9526 11.5814 32.0001 11.6907C32.0922 11.9035 32.2619 12.0733 32.4748 12.1654C32.5841 12.2129 32.7023 12.2365 32.8214 12.2347C32.9389 12.2364 33.0553 12.2128 33.1628 12.1654C33.2686 12.1203 33.3646 12.0551 33.4454 11.9734C33.5261 11.8916 33.5912 11.7958 33.6374 11.6907C33.6849 11.5814 33.7086 11.4632 33.7068 11.344C33.7085 11.2266 33.6848 11.1102 33.6374 11.0027ZM33.4934 11.632C33.4564 11.7173 33.404 11.7951 33.3388 11.8614C33.2722 11.9301 33.1924 11.9845 33.1041 12.0214C33.0139 12.06 32.9168 12.0799 32.8188 12.0799C32.7207 12.0799 32.6236 12.06 32.5334 12.0214C32.3617 11.9418 32.2237 11.8038 32.1441 11.632C32.1055 11.5419 32.0856 11.4448 32.0856 11.3467C32.0856 11.2486 32.1055 11.1516 32.1441 11.0614C32.1809 10.9731 32.2354 10.8933 32.3041 10.8267C32.374 10.757 32.4573 10.7021 32.5489 10.6654C32.6406 10.6288 32.7387 10.6111 32.8374 10.6134C32.9346 10.6144 33.0306 10.6343 33.1201 10.672C33.208 10.7072 33.2878 10.7598 33.3547 10.8267C33.4217 10.8937 33.4743 10.9735 33.5094 11.0614C33.548 11.1516 33.5679 11.2486 33.5679 11.3467C33.5679 11.4448 33.548 11.5419 33.5094 11.632H33.4934ZM32.9868 11.4187C33.0508 11.4112 33.1107 11.3831 33.1574 11.3387C33.1826 11.3117 33.2019 11.2797 33.2138 11.2448C33.2258 11.2099 33.2302 11.1728 33.2268 11.136C33.2295 11.0948 33.2232 11.0534 33.2085 11.0147C33.1938 10.9761 33.1709 10.9411 33.1414 10.912C33.0638 10.8526 32.9669 10.8241 32.8694 10.832H32.4801V11.8507H32.6614V11.4347H32.8001L33.0561 11.8507H33.2481L32.9868 11.4187ZM32.8854 11.2694H32.6614V10.9867H32.8854C32.9118 10.9813 32.939 10.9813 32.9654 10.9867C32.9864 10.9965 33.0047 11.0111 33.0188 11.0294C33.0328 11.0537 33.0402 11.0813 33.0402 11.1094C33.0402 11.1375 33.0328 11.1651 33.0188 11.1894C33.0047 11.2077 32.9864 11.2223 32.9654 11.232C32.9419 11.2504 32.9146 11.2631 32.8854 11.2694Z" fill="white"/>
<path d="M53.8667 16.5601V16.3467H55.1094V16.5601H54.608V17.9361H54.368V16.5601H53.8667ZM55.6107 16.3467L56.1974 17.1681L56.7787 16.3467H56.9867V17.9467H56.752V16.7681L56.2187 17.5361L55.6854 16.7681V17.9361H55.4507V16.3361L55.6107 16.3467Z" fill="white"/>
<path d="M8.24012 15.968C12.4695 15.968 14.4695 18.688 14.4695 18.688L12.9121 20.2667C12.9121 20.2667 11.4668 18.2187 8.24012 18.2187C7.46507 18.1952 6.69318 18.3275 5.97023 18.6079C5.24728 18.8882 4.58798 19.3109 4.03143 19.8508C3.47488 20.3907 3.0324 21.0369 2.73024 21.751C2.42808 22.4651 2.27238 23.2326 2.27238 24.008C2.27238 24.7834 2.42808 25.5509 2.73024 26.2651C3.0324 26.9792 3.47488 27.6253 4.03143 28.1652C4.58798 28.7052 5.24728 29.1278 5.97023 29.4082C6.69318 29.6885 7.46507 29.8209 8.24012 29.7973C9.78884 29.8191 11.306 29.3588 12.5815 28.48V25.6H8.57079V23.3814H15.0295V29.216C15.0295 29.216 12.8695 32 8.24012 32C6.11415 32 4.07524 31.1555 2.57195 29.6522C1.06866 28.1489 0.224121 26.11 0.224121 23.984C0.224121 21.858 1.06866 19.8191 2.57195 18.3158C4.07524 16.8126 6.11415 15.968 8.24012 15.968Z" fill="white"/>
<path d="M16.6987 24C16.7034 22.9304 16.9214 21.8725 17.3402 20.8882C17.7589 19.904 18.3699 19.0132 19.1373 18.2682C19.9048 17.5231 20.8132 16.9387 21.8094 16.5492C22.8056 16.1597 23.8695 15.973 24.9387 16C26.0077 15.973 27.0714 16.1598 28.0673 16.5493C29.0632 16.9388 29.9713 17.5233 30.7383 18.2685C31.5053 19.0136 32.1157 19.9044 32.5339 20.8886C32.9521 21.8728 33.1695 22.9306 33.1734 24C33.1723 24.3687 33.1365 24.7366 33.0667 25.0987H19.2587C19.5034 26.4258 20.2059 27.625 21.2438 28.4875C22.2817 29.35 23.5892 29.8211 24.9387 29.8187C25.92 29.8683 26.8989 29.6822 27.7934 29.2757C28.6879 28.8693 29.472 28.2544 30.0801 27.4827L32.0001 28.928C30.5014 30.64 28.3894 32 24.9387 32C23.8695 32.027 22.8056 31.8403 21.8094 31.4508C20.8132 31.0613 19.9048 30.4769 19.1373 29.7318C18.3699 28.9868 17.7589 28.096 17.3402 27.1118C16.9214 26.1275 16.7034 25.0696 16.6987 24ZM19.2587 22.9333H30.6347C30.4085 21.5971 29.7125 20.3857 28.672 19.5173C27.6316 18.649 26.3152 18.1809 24.9601 18.1973C23.6043 18.1895 22.2893 18.6602 21.2465 19.5265C20.2036 20.3928 19.4997 21.5992 19.2587 22.9333Z" fill="white"/>
<path d="M33.1733 18.4214V16.192H47.0027V18.4214H41.3227V31.7547H38.8747V18.4214H33.1733Z" fill="white"/>
<path d="M51.8079 18.8853H49.2266V16.2186H51.8079V18.8853ZM51.7332 20.9813V31.776H49.2959V20.9813H51.7332Z" fill="white"/>
</g>
<defs>
<clipPath id="clip0_95_22338">
<rect width="56.9653" height="32" fill="white"/>
</clipPath>
</defs>
</svg>
