<?xml version="1.0" encoding="UTF-8"?>
<svg width="28.85" height="28.85" version="1.1" viewBox="0 0 28.85 28.85" xmlns="http://www.w3.org/2000/svg">
 <rect x="9.5367e-7" width="100%" height="100%" fill="#a28dea"/>
 <g transform="translate(.00045019 -.012)" fill="#fff">
  <path d="m17.912 12.966c-0.2442 0.49965-0.7454 0.84717-1.3484 0.84717-0.8461 0-1.505-0.6874-1.505-1.528 0-0.60752 0.3465-1.1336 0.8568-1.3809-0.4564-0.19742-0.96115-0.30733-1.4969-0.30733-2.1162 0-3.7632 1.7325-3.7632 3.8344s1.6475 3.8197 3.7632 3.8197c2.1299 0 3.7774-1.7183 3.7774-3.8197-5e-4 -0.51797-0.1018-1.0125-0.2839-1.4654z"/>
  <path d="m5 14.437c0-5.2093 4.2028-9.437 9.4121-9.437 5.2347 0 9.437 4.2278 9.437 9.437s-4.2029 9.437-9.437 9.437c-5.2093 0-9.4121-4.2278-9.4121-9.437zm16.106 0c0-3.7245-2.919-6.7947-6.6939-6.7947-3.7494 0-6.669 3.0702-6.669 6.7947s2.9191 6.7693 6.669 6.7693c3.7749 5e-4 6.6939-3.0448 6.6939-6.7693z"/>
 </g>
</svg>
