<?xml version="1.0" encoding="UTF-8"?>
<svg width="14.002" height="10.002" fill="none" version="1.1" viewBox="0 0 14.002 10.002" xmlns="http://www.w3.org/2000/svg">
 <path d="m9.6855 0.035429c-0.3712-0.07093-0.779-0.04153-1.1501 0.14459-0.0725 0.03637-0.1463 0.07469-0.2208 0.11438-0.2491 0.13283-0.5144 0.2049-0.7758 0.2049h-1.0754c-0.26149 0-0.52676-0.07207-0.77589-0.2049-0.07443-0.03969-0.14824-0.078-0.22076-0.11437-0.37112-0.18612-0.7789-0.21552-1.15-0.14459l-0.82614 0.15787c-0.60369 0.11537-1.123 0.50362-1.4028 1.0523-0.95698 1.8765-1.6805 3.4132-1.9597 4.7238-0.28791 1.3514-0.11256 2.5086 0.75384 3.5623 0.5752 0.6995 1.5635 0.5581 2.0774-0.0252 0.3955-0.4489 0.84638-0.9694 1.2865-1.4814 0.28689-0.3337 0.704-0.5258 1.1424-0.5258h3.2258c0.4384 0 0.8555 0.1921 1.1424 0.5258 0.4401 0.512 0.891 1.0325 1.2865 1.4814 0.5139 0.5833 1.5022 0.7247 2.0774 0.0251 0.8664-1.0536 1.0418-2.2108 0.7539-3.5622-0.2793-1.3106-1.0028-2.8473-1.9598-4.7238-0.2798-0.54868-0.7991-0.93692-1.4028-1.0523zm-2.6816 3.9634c-0.41421 0-0.75-0.33579-0.75-0.75s0.33579-0.75 0.75-0.75c0.4142 0 0.75 0.33579 0.75 0.75s-0.3358 0.75-0.75 0.75z" fill="#424242"/>
</svg>
