<svg width="116" height="106" viewBox="0 0 116 106" fill="none" xmlns="http://www.w3.org/2000/svg">
<path d="M22 0C12.0589 0 4 8.05888 4 18V49.6389C6.3603 47.5264 9.05707 45.7821 12 44.4963V18C12 12.4772 16.4772 8 22 8H98C103.523 8 108 12.4772 108 18V78C108 83.5228 103.523 88 98 88H54.1421L61.0711 94.9289C61.4108 95.2687 61.721 95.6267 62.0016 96H98C107.941 96 116 87.9411 116 78V18C116 8.05888 107.941 0 98 0H22ZM34.7928 44C39.265 45.725 43.2201 48.4906 46.3611 52H84C86.2091 52 88 50.2091 88 48C88 45.7909 86.2091 44 84 44H34.7928ZM72 72H54C54 69.2296 53.6245 66.5469 52.9215 64H72C74.2091 64 76 65.7909 76 68C76 70.2091 74.2091 72 72 72ZM28 28C28 25.7909 29.7909 24 32 24H60C62.2091 24 64 25.7909 64 28C64 30.2091 62.2091 32 60 32H32C29.7909 32 28 30.2091 28 28ZM24 96C29.1833 96 33.9829 94.3568 37.9061 91.563L51.1716 104.828C52.7337 106.391 55.2663 106.391 56.8284 104.828C58.3905 103.266 58.3905 100.734 56.8284 99.1716L43.563 85.9061C46.3568 81.9829 48 77.1833 48 72C48 58.7452 37.2548 48 24 48C10.7452 48 0 58.7452 0 72C0 85.2548 10.7452 96 24 96ZM24 88C15.1634 88 8 80.8366 8 72C8 63.1634 15.1634 56 24 56C32.8366 56 40 63.1634 40 72C40 80.8366 32.8366 88 24 88Z" fill="#939393"/>
</svg>
