<svg width="360" height="360" viewBox="0 0 360 360" fill="none" xmlns="http://www.w3.org/2000/svg">
<g clip-path="url(#clip0_40589_10507)">
<path opacity="0.16" d="M188.779 36.1865C157.95 36.1865 120.982 57.6159 104.395 97.6292C91.0857 129.736 136.987 147.52 60.5844 198.453C36.0377 214.819 51.3737 251.893 71.8831 276.989C102.32 314.237 148.006 336.768 192.675 336.768C270.992 336.768 302.963 305.245 309.179 255.56C315.76 202.949 301.84 171.565 280.123 129.533C259.451 89.5252 259.694 36.1892 188.779 36.1892V36.1865Z" fill="white"/>
<path opacity="0.12" d="M186.814 256.744C203.422 255.741 220.144 259.341 236.766 262.016C263.574 266.331 260.984 262.963 286.838 256.269C330.222 245.04 289.302 210.021 311.811 192.437C339.864 170.52 309.923 131.504 283.758 123.179C254.243 113.787 270.179 152.344 239.891 148.109C223.187 145.773 208.299 135.125 193.347 126.157C171.043 112.779 153.206 97.2772 128.211 96.3119C103.216 95.3492 97.2431 104.781 82.1178 125.363C66.9898 145.941 64.8751 178.323 80.5311 200.16C86.0831 207.907 93.8538 214.861 95.1471 224.373C96.8645 236.997 66.5925 246.84 56.2058 252.219C45.8191 257.6 33.7525 261.829 28.0938 272.621C4.20847 318.171 79.5631 327.317 103.635 322.312C120.654 318.773 127.931 306.483 135.936 291.208C147.246 269.635 162.928 258.187 186.816 256.747L186.814 256.744Z" fill="white"/>
<path d="M107.47 255.325C99.4913 270.642 75.8673 274.584 63.35 262.682C50.8326 250.781 53.574 226.989 68.4673 218.245C55.2646 221.528 40.4273 210.81 39.3953 197.245C38.3633 183.68 51.414 170.842 64.9606 172.093C56.118 162.192 47.8966 150.866 46.0486 137.722C44.2033 124.578 50.7366 109.448 63.4166 105.517C74.2326 102.162 86.2166 107.837 93.5713 116.448C100.929 125.058 104.643 136.109 108.195 146.864C106.235 139.992 109.003 132.032 114.803 127.856C120.603 123.682 129.03 123.586 134.926 127.626C141.257 131.968 144.081 140.122 143.95 147.797C143.819 155.472 141.185 162.856 138.582 170.077C138.865 162.066 144.723 154.56 152.427 152.344C160.131 150.128 169.086 153.37 173.582 160.005C178.094 166.661 177.958 175.621 175.209 183.176C172.462 190.733 167.43 197.205 162.478 203.538C168.593 195.962 182.414 201.672 184.798 211.112C187.182 220.552 181.734 230.229 175.129 237.381C162.393 251.173 144.419 260.01 125.721 261.672" fill="#00C7FD"/>
<path d="M122.443 232.232C122.256 232.232 122.104 232.082 122.101 231.893C121.901 218.941 119.021 205.442 113.541 191.773C109.152 180.829 103.099 169.754 95.5441 158.856C82.6748 140.288 69.7441 128.514 69.6134 128.4C69.4721 128.272 69.4614 128.056 69.5894 127.917C69.7174 127.776 69.9334 127.765 70.0721 127.893C70.2028 128.01 83.1814 139.824 96.0961 158.453C103.683 169.397 109.765 180.52 114.173 191.512C119.688 205.261 122.587 218.845 122.787 231.885C122.789 232.074 122.637 232.229 122.448 232.232C122.448 232.232 122.445 232.232 122.443 232.232Z" fill="#333333"/>
<path d="M73.9955 199.031C70.2195 199.031 67.8222 198.405 67.6702 198.362C67.4862 198.314 67.3795 198.125 67.4275 197.943C67.4755 197.762 67.6648 197.653 67.8462 197.701C67.9022 197.717 73.5822 199.197 81.2382 197.578C88.2968 196.087 98.5368 191.575 107.217 178.551C107.321 178.394 107.534 178.351 107.691 178.455C107.849 178.559 107.891 178.773 107.787 178.93C98.9688 192.159 88.5395 196.741 81.3448 198.253C78.5715 198.837 76.0728 199.026 73.9928 199.026L73.9955 199.031Z" fill="#333333"/>
<path opacity="0.25" d="M188.779 36.1865C157.95 36.1865 120.982 57.6159 104.395 97.6292C91.0857 129.736 136.987 147.52 60.5844 198.453C36.0377 214.819 51.3737 251.893 71.8831 276.989C102.32 314.237 148.006 336.768 192.675 336.768C270.992 336.768 302.963 305.245 309.179 255.56C315.76 202.949 301.84 171.565 280.123 129.533C259.451 89.5252 259.694 36.1892 188.779 36.1892V36.1865Z" fill="black"/>
<path d="M249.629 263.501C326.947 285.72 363.997 183.475 306.325 214.531C321.133 202.448 338.264 180.536 336.384 165.395C335.04 154.576 327.768 152.395 320.163 154.64C316.816 155.629 313.872 152.213 315.437 149.093C331.909 116.248 314.547 96.896 296.992 119C294.728 121.851 290.117 120.443 289.92 116.808C288.149 83.896 255.517 104.005 259.011 151.243C258.069 138.512 246.648 124.691 235.557 136.749C225.456 150.565 226.448 168.464 229.347 185.528C226.363 169.6 205.107 153.619 197.157 175.067C186.717 210.107 210.995 252.397 249.629 263.501Z" fill="#FEC91B"/>
<path d="M294.873 161.675C294.873 161.675 275.057 258.275 241.571 290.059L294.873 161.675Z" fill="#FEC91B"/>
<path d="M241.573 290.391C241.485 290.391 241.397 290.357 241.331 290.287C241.203 290.154 241.211 289.943 241.344 289.815C248.952 282.594 256.483 271.367 263.725 256.445C269.528 244.493 275.157 230.162 280.461 213.847C289.491 186.063 294.499 161.845 294.547 161.605C294.584 161.423 294.76 161.309 294.941 161.346C295.123 161.383 295.237 161.559 295.2 161.741C295.149 161.983 290.139 186.231 281.096 214.05C275.784 230.394 270.141 244.754 264.325 256.735C257.045 271.73 249.467 283.023 241.8 290.301C241.736 290.362 241.653 290.391 241.571 290.391H241.573Z" fill="#333333"/>
<path d="M238.195 212.194C247.505 242.925 269.587 245.25 269.587 245.25L238.195 212.194Z" fill="#FEC91B"/>
<path d="M269.587 245.583C269.587 245.583 269.563 245.583 269.552 245.583C269.323 245.559 263.875 244.943 257.2 240.527C251.056 236.463 242.718 228.263 237.878 212.293C237.824 212.117 237.923 211.93 238.099 211.877C238.275 211.823 238.462 211.922 238.515 212.098C243.288 227.858 251.494 235.941 257.534 239.946C264.078 244.285 269.568 244.911 269.622 244.917C269.806 244.935 269.936 245.101 269.918 245.282C269.899 245.453 269.755 245.581 269.587 245.581V245.583Z" fill="#333333"/>
<path d="M289.718 184.4C289.718 184.4 299.918 189.042 308.376 175.242L289.718 184.4Z" fill="#FEC91B"/>
<path d="M293.88 185.485C291.336 185.485 289.667 184.741 289.581 184.704C289.413 184.626 289.341 184.429 289.416 184.264C289.493 184.096 289.691 184.021 289.856 184.098C289.88 184.109 292.387 185.218 295.861 184.664C300.467 183.93 304.696 180.613 308.093 175.072C308.189 174.914 308.395 174.866 308.552 174.962C308.709 175.058 308.757 175.264 308.661 175.421C306.213 179.416 302.016 184.376 295.925 185.328C295.195 185.442 294.509 185.488 293.877 185.488L293.88 185.485Z" fill="#333333"/>
<path d="M274.635 233.107C274.635 233.107 293.717 233.091 297.075 205.733L274.635 233.107Z" fill="#FEC91B"/>
<path d="M274.635 233.44C274.451 233.44 274.302 233.291 274.302 233.107C274.302 232.923 274.451 232.773 274.635 232.773C274.683 232.773 279.395 232.723 284.446 229.379C292.896 223.784 295.798 213.411 296.744 205.693C296.766 205.512 296.934 205.381 297.115 205.403C297.299 205.424 297.427 205.592 297.406 205.773C296.44 213.643 293.467 224.227 284.782 229.957C279.568 233.397 274.835 233.44 274.638 233.44H274.635Z" fill="#333333"/>
<path opacity="0.25" d="M186.814 256.744C203.422 255.741 220.144 259.341 236.766 262.016C263.574 266.331 260.984 262.963 286.838 256.269C330.222 245.04 289.302 210.021 311.811 192.437C339.864 170.52 309.923 131.504 283.758 123.179C254.243 113.787 270.179 152.344 239.891 148.109C223.187 145.773 208.299 135.125 193.347 126.157C171.043 112.779 153.206 97.2772 128.211 96.3119C103.216 95.3492 97.2431 104.781 82.1178 125.363C66.9898 145.941 64.8751 178.323 80.5311 200.16C86.0831 207.907 93.8538 214.861 95.1471 224.373C96.8645 236.997 66.5925 246.84 56.2058 252.219C45.8191 257.6 33.7525 261.829 28.0938 272.621C4.20847 318.171 79.5631 327.317 103.635 322.312C120.654 318.773 127.931 306.483 135.936 291.208C147.246 269.635 162.928 258.187 186.816 256.747L186.814 256.744Z" fill="black"/>
<path d="M112.011 80.7734H263.163C272.686 80.7734 280.419 88.5068 280.419 98.0294V202.84C280.419 208.699 275.662 213.456 269.803 213.456H105.374C99.5151 213.456 94.7578 208.699 94.7578 202.84V98.0294C94.7578 88.5068 102.491 80.7734 112.014 80.7734H112.011Z" fill="#00C7FD"/>
<path d="M94.7549 194.845H280.718V205.477C280.718 209.879 277.142 213.455 272.739 213.455H102.736C98.3336 213.455 94.7576 209.879 94.7576 205.477V194.845H94.7549Z" fill="#A0EBFF"/>
<path d="M257.411 86.9756H116.891C108.265 86.9756 101.272 93.9683 101.272 102.594V170.992C101.272 179.618 108.265 186.61 116.891 186.61H257.411C266.037 186.61 273.03 179.618 273.03 170.992V102.594C273.03 93.9683 266.037 86.9756 257.411 86.9756Z" fill="#005B85"/>
<path d="M244.606 99.6633L245.854 102.194C245.966 102.418 246.179 102.575 246.427 102.613L249.219 103.018C249.846 103.109 250.094 103.877 249.643 104.319L247.622 106.29C247.443 106.466 247.361 106.717 247.403 106.965L247.881 109.746C247.987 110.37 247.334 110.845 246.774 110.551L244.275 109.239C244.054 109.122 243.787 109.122 243.566 109.239L241.067 110.551C240.507 110.845 239.854 110.37 239.961 109.746L240.438 106.965C240.481 106.717 240.398 106.463 240.219 106.29L238.198 104.319C237.745 103.877 237.995 103.109 238.622 103.018L241.414 102.613C241.662 102.575 241.878 102.421 241.987 102.194L243.235 99.6633C243.515 99.0953 244.323 99.0953 244.603 99.6633H244.606Z" fill="#FFE17A"/>
<path d="M256.942 120.451L257.483 121.549C257.531 121.648 257.624 121.715 257.734 121.731L258.947 121.907C259.219 121.947 259.328 122.28 259.131 122.472L258.254 123.328C258.176 123.405 258.139 123.515 258.158 123.621L258.366 124.829C258.411 125.101 258.128 125.307 257.886 125.179L256.8 124.608C256.704 124.557 256.59 124.557 256.491 124.608L255.406 125.179C255.163 125.307 254.878 125.101 254.926 124.829L255.134 123.621C255.152 123.515 255.118 123.405 255.038 123.328L254.16 122.472C253.963 122.28 254.072 121.947 254.344 121.907L255.558 121.731C255.664 121.715 255.758 121.648 255.808 121.549L256.35 120.451C256.472 120.205 256.822 120.205 256.944 120.451H256.942Z" fill="#FEC91B"/>
<mask id="mask0_40589_10507" style="mask-type:luminance" maskUnits="userSpaceOnUse" x="101" y="86" width="173" height="101">
<path d="M257.411 86.9756H116.891C108.265 86.9756 101.272 93.9683 101.272 102.594V170.992C101.272 179.618 108.265 186.61 116.891 186.61H257.411C266.037 186.61 273.03 179.618 273.03 170.992V102.594C273.03 93.9683 266.037 86.9756 257.411 86.9756Z" fill="white"/>
</mask>
<g mask="url(#mask0_40589_10507)">
<path d="M284.425 116.071C287.243 132.157 275.233 147.791 260.582 154.999C245.929 162.207 229.107 163.077 212.857 164.655C173.065 168.522 133.766 177.434 96.1979 191.114C75.5206 198.642 53.1766 209.93 46.5659 230.919C39.9846 251.81 52.5953 275.007 70.8433 287.125C89.0912 299.242 111.657 302.599 133.473 304.557C164.982 307.383 197.339 307.842 227.579 298.551C257.819 289.261 285.939 268.935 298.249 239.791C310.555 210.647 303.457 172.671 277.555 154.506" fill="#0095CA"/>
<path d="M293.116 220.303C298.718 231.535 292.761 267.274 305.188 269.047C317.009 270.733 328.753 262.189 333.078 251.058C337.404 239.927 335.318 227.09 329.98 216.41C324.641 205.73 314.172 199.81 305.689 191.407C287.825 173.714 272.916 157.535 248.948 149.943C236.774 146.087 213.078 137.479 197.67 146.847C186.292 153.765 199.412 170.311 207.436 174.127C231.532 185.591 274.257 182.487 293.118 220.303H293.116Z" fill="#A0EBFF"/>
</g>
<path d="M204.137 165.749C212.502 172.267 223.785 174.885 234.166 172.72L230.337 168.931C229.446 168.051 230.361 166.571 231.548 166.973L241.062 170.205C238.067 165.173 233.897 160.848 228.99 157.653C228.478 157.32 228.822 156.528 229.414 156.675L231.974 157.312C228.182 149.363 219.481 144.024 210.676 144.248C206.086 144.365 200.497 147.235 198.481 151.643C196.011 157.037 200.081 162.592 204.134 165.749H204.137Z" fill="#FEC91B"/>
<path d="M198.445 153.607C198.045 156.869 200.008 160.098 202.731 161.935C205.456 163.773 208.816 164.418 212.096 164.589C215.376 164.762 218.672 164.503 221.949 164.733C219.363 163.061 218.445 159.733 218.091 156.671C217.736 153.61 217.701 150.373 216.144 147.714C214.395 144.725 210.731 142.986 207.309 143.517C203.888 144.047 200.923 146.815 200.16 150.194L198.443 153.61L198.445 153.607Z" fill="#FFE17A"/>
<path d="M212.555 114.92C214.033 115.765 213.859 117.97 212.259 118.546C211.491 118.824 210.649 118.917 209.806 118.794C201.99 117.648 194.091 121.24 189.875 128.144L173.217 118.616L175.683 114.301C180.555 105.781 191.414 102.826 199.934 107.698L212.558 114.92H212.555Z" fill="#00C7FD"/>
<path d="M177.459 149.864L160.801 140.336L158.334 144.651C153.462 153.171 156.417 164.027 164.937 168.901L178.115 176.44C179.131 177.021 180.425 176.669 181.006 175.653C181.467 174.848 181.363 173.824 180.715 173.157C174.723 166.965 173.355 157.549 177.462 149.867L177.459 149.864Z" fill="#00C7FD"/>
<path d="M210.486 138.365L206.195 137.581L193.31 160.109L196.179 163.429C196.984 164.362 197.944 165.154 199.011 165.77C199.702 166.168 200.587 165.93 200.984 165.24L214.566 141.664C214.968 140.968 214.726 140.077 214.03 139.677L213.982 139.65C212.899 139.029 211.715 138.597 210.486 138.37V138.365Z" fill="#0095CA"/>
<mask id="mask1_40589_10507" style="mask-type:luminance" maskUnits="userSpaceOnUse" x="193" y="137" width="22" height="29">
<path d="M210.486 138.365L206.195 137.581L193.31 160.109L196.179 163.429C196.984 164.362 197.944 165.154 199.011 165.77C199.702 166.168 200.587 165.93 200.984 165.24L214.568 141.656C214.968 140.962 214.728 140.077 214.035 139.68L213.979 139.648C212.896 139.026 211.712 138.594 210.483 138.368L210.486 138.365Z" fill="white"/>
</mask>
<g mask="url(#mask1_40589_10507)">
<path d="M216.318 140.458L200.24 168.565L197.272 166.866C197.272 166.866 201.31 157.685 204.531 152.093C207.622 146.728 213.35 138.76 213.35 138.76L216.318 140.458Z" fill="#005B85"/>
</g>
<path d="M206.227 138.011C207.278 136.176 207.038 133.872 205.627 132.301C200.113 126.16 192.473 120.027 183.385 114.827C166.118 104.949 145.214 107.208 136.219 108.845C133.777 109.291 132.326 111.824 133.182 114.155C136.329 122.739 144.979 141.901 162.246 151.779C171.337 156.979 180.494 160.453 188.585 162.093C190.657 162.515 192.761 161.552 193.811 159.717L206.227 138.011Z" fill="#D2F9FF"/>
<mask id="mask2_40589_10507" style="mask-type:luminance" maskUnits="userSpaceOnUse" x="132" y="107" width="75" height="56">
<path d="M206.227 138.011C207.278 136.176 207.038 133.872 205.627 132.301C200.113 126.16 192.473 120.027 183.385 114.827C166.118 104.949 145.214 107.208 136.219 108.845C133.777 109.291 132.326 111.824 133.182 114.155C136.329 122.739 144.979 141.901 162.246 151.779C171.337 156.979 180.494 160.453 188.585 162.093C190.657 162.515 192.761 161.552 193.811 159.717L206.227 138.011Z" fill="white"/>
</mask>
<g mask="url(#mask2_40589_10507)">
<path d="M155.54 93.7305C156.585 94.3278 157.132 95.5278 156.886 96.7065C156.14 100.314 153.913 108.541 147.724 119.362C142.745 128.064 137.529 133.01 135.001 135.096C134.108 135.834 132.852 135.941 131.844 135.365L122.294 129.997C120.958 129.232 120.494 127.53 121.26 126.194L142.276 89.4505C143.041 88.1145 144.742 87.6505 146.078 88.4158L155.537 93.7305H155.54Z" fill="#00C7FD"/>
<path d="M201.923 158.81L215.59 135.082L215.195 132.682L191.379 117.349L164.55 107.333C178.23 110.666 196.806 121.373 186.854 155.549C183.747 166.218 192.339 163.928 201.923 158.808V158.81Z" fill="#A0EBFF"/>
</g>
<path d="M158.433 135.638C164.114 135.638 168.721 131.031 168.721 125.35C168.721 119.668 164.114 115.062 158.433 115.062C152.751 115.062 148.145 119.668 148.145 125.35C148.145 131.031 152.751 135.638 158.433 135.638Z" fill="#A0EBFF"/>
<path d="M158.531 132.815C162.748 132.815 166.166 129.397 166.166 125.181C166.166 120.964 162.748 117.546 158.531 117.546C154.315 117.546 150.896 120.964 150.896 125.181C150.896 129.397 154.315 132.815 158.531 132.815Z" fill="#005B85"/>
<path d="M158.433 129.915C160.954 129.915 162.998 127.871 162.998 125.35C162.998 122.828 160.954 120.784 158.433 120.784C155.911 120.784 153.867 122.828 153.867 125.35C153.867 127.871 155.911 129.915 158.433 129.915Z" fill="white"/>
<path d="M184.192 147.131C175.358 142.077 169.598 135.533 171.326 132.512C173.054 129.491 181.616 131.139 190.448 136.192C196.6 139.712 200.424 145.419 202.179 148.56C202.776 149.629 202.024 150.944 200.8 150.971C197.203 151.051 190.344 150.648 184.192 147.131Z" fill="#00C7FD"/>
<path d="M140.665 145.941H112.497C111.466 145.941 110.63 146.777 110.63 147.808V147.811C110.63 148.842 111.466 149.677 112.497 149.677H140.665C141.695 149.677 142.531 148.842 142.531 147.811V147.808C142.531 146.777 141.695 145.941 140.665 145.941Z" fill="#0095CA"/>
<path d="M140.665 153.16H112.497C111.466 153.16 110.63 153.996 110.63 155.027V155.029C110.63 156.06 111.466 156.896 112.497 156.896H140.665C141.695 156.896 142.531 156.06 142.531 155.029V155.027C142.531 153.996 141.695 153.16 140.665 153.16Z" fill="#0095CA"/>
<path d="M125.545 164.546H112.209C111.337 164.546 110.63 165.253 110.63 166.125V169.495C110.63 170.367 111.337 171.074 112.209 171.074H125.545C126.416 171.074 127.123 170.367 127.123 169.495V166.125C127.123 165.253 126.416 164.546 125.545 164.546Z" fill="#FF5662"/>
<path d="M297.539 301.149H75.451C65.683 301.149 57.7656 293.466 57.7656 283.989L62.8216 250.88C62.8216 241.402 70.739 233.72 80.507 233.72H289.952C299.72 233.72 307.638 241.402 307.638 250.88L315.222 283.989C315.222 293.466 307.304 301.149 297.536 301.149H297.539Z" fill="#A0EBFF"/>
<path d="M295.307 293.517H238.422C232.598 293.517 228.222 287.016 229.347 280.032L234.014 251.082C234.867 245.786 238.67 241.968 243.089 241.968H290.451C294.843 241.968 298.63 245.741 299.51 251L304.366 279.949C305.542 286.957 301.161 293.517 295.307 293.517Z" fill="#00C7FD"/>
<path d="M288.228 265.723H245.505C244.007 265.723 242.793 266.937 242.793 268.435V268.803C242.793 270.3 244.007 271.515 245.505 271.515H288.228C289.725 271.515 290.94 270.3 290.94 268.803V268.435C290.94 266.937 289.725 265.723 288.228 265.723Z" fill="#6DDCFF"/>
<path d="M290.889 276.45H242.838C241.078 276.45 239.651 277.877 239.651 279.637C239.651 281.397 241.078 282.824 242.838 282.824H290.889C292.649 282.824 294.075 281.397 294.075 279.637C294.075 277.877 292.649 276.45 290.889 276.45Z" fill="#6DDCFF"/>
<path d="M133.262 293.517H76.3769C70.5529 293.517 66.1769 287.016 67.3022 280.032L71.9689 251.082C72.8222 245.786 76.6249 241.968 81.0436 241.968H128.406C132.798 241.968 136.585 245.741 137.465 251L142.321 279.949C143.497 286.957 139.116 293.517 133.262 293.517Z" fill="#005B85"/>
<path d="M126.182 250.56H83.4591C81.9613 250.56 80.7471 251.774 80.7471 253.272V253.64C80.7471 255.137 81.9613 256.352 83.4591 256.352H126.182C127.68 256.352 128.894 255.137 128.894 253.64V253.272C128.894 251.774 127.68 250.56 126.182 250.56Z" fill="#0095CA"/>
<path d="M128.846 261.29H80.7951C79.0351 261.29 77.6084 262.717 77.6084 264.477C77.6084 266.237 79.0351 267.663 80.7951 267.663H128.846C130.606 267.663 132.032 266.237 132.032 264.477C132.032 262.717 130.606 261.29 128.846 261.29Z" fill="#0095CA"/>
<path d="M93.998 279.821H106.889C109.027 279.821 110.761 281.557 110.761 283.693V285.717H90.126V283.693C90.126 281.555 91.862 279.821 93.998 279.821Z" fill="#FF5662"/>
<path d="M81.5601 279.96H78.7521C77.0466 279.96 75.6641 281.343 75.6641 283.048C75.6641 284.753 77.0466 286.136 78.7521 286.136H81.5601C83.2655 286.136 84.6481 284.753 84.6481 283.048C84.6481 281.343 83.2655 279.96 81.5601 279.96Z" fill="#00C7FD"/>
<path d="M133.854 279.538H117.568V285.714H133.854V279.538Z" fill="#0095CA"/>
<path d="M147.795 283.155C143.313 284.165 133.35 284.232 126.937 283.235C126.217 283.123 118.174 282.355 114.609 282.024C111.046 281.693 109.411 283.4 105.702 280.528C103.494 278.819 98.582 283.152 97.8646 282.523C97.0033 281.768 99.0753 279.101 100.145 277.536C101.275 275.877 108.211 273.221 112.329 275.184C118.681 278.211 128.187 277.08 131.923 276.253C137.153 275.096 145.963 274.117 146.246 268.768C146.665 260.864 147.427 245.992 148.385 240.555C152.803 215.405 161.478 224.229 160.742 244.624C159.891 268.165 160.777 280.229 147.798 283.157L147.795 283.155Z" fill="#FFBB8D"/>
<path d="M220.392 281.256C216.374 283.488 204.776 287.104 200.118 287.365C195.456 287.627 191.054 291.2 190.768 286.539C190.44 281.192 196.563 278.24 201.614 276.464C206.667 274.685 216.048 273.136 214.696 267.952C202.254 220.243 217.432 214.472 222.35 239.269C226.931 262.376 233.251 274.112 220.395 281.256H220.392Z" fill="#FFBB8D"/>
<path d="M155.71 298.115C155.342 309.907 166.625 308.187 171.737 308.219C192.806 308.355 191.691 313.099 206.062 308.64C217.513 304.112 210.518 284.635 207.571 277.283C201.595 262.371 200.347 258.76 207.483 242.443C210.363 235.859 217.017 226.427 213.491 218.616C208.843 208.32 184.099 206.923 176.011 208.925C166.473 211.285 159.27 212.04 160.702 232.584C161.363 242.088 165.582 241.085 167.321 260.789C168.31 272.016 156.075 286.525 155.715 298.115H155.71Z" fill="#FF8F51"/>
<path d="M153.758 214.594C148.736 216.394 145.515 221.53 144.507 226.767C143.822 230.33 142.43 233.525 141.87 236.861C141.464 239.269 143.339 241.458 145.782 241.41C146.278 241.399 146.787 241.394 147.291 241.386C149.806 241.349 152.163 242.437 153.915 244.237C155.211 245.57 156.976 246.458 158.835 246.591C161.934 246.815 164.592 245.959 164.696 242.855C164.846 238.386 164.022 235.261 163.075 231.565C160.782 222.594 167.355 221.738 165.363 218.157C163.299 214.445 157.443 213.274 153.755 214.594H153.758Z" fill="#E96115"/>
<path d="M219.027 214.816C223.928 216.92 226.83 222.243 227.515 227.533C227.982 231.131 229.174 234.405 229.528 237.768C229.784 240.197 227.779 242.267 225.344 242.069C224.848 242.029 224.342 241.992 223.84 241.952C221.334 241.76 218.915 242.701 217.054 244.392C215.678 245.643 213.862 246.421 211.998 246.443C208.891 246.477 206.288 245.459 206.376 242.355C206.499 237.885 207.459 234.797 208.686 231.184C212.088 221.168 204.75 216.64 206.958 213.187C209.246 209.608 215.427 213.269 219.027 214.813V214.816Z" fill="#E96115"/>
<path d="M183.675 152.997C171.934 152.939 161.046 163.043 160.227 174.755C159.891 179.579 161.027 184.613 159.377 189.157C158.054 192.795 155.137 195.568 152.635 198.517C150.131 201.467 147.873 205.091 148.321 208.933C148.769 212.776 153.267 216.131 156.587 214.139C153.361 216.552 153.078 221.987 156.035 224.723C158.993 227.459 164.387 226.757 166.545 223.355C165.097 227.251 166.721 232.056 170.235 234.275C173.75 236.493 178.785 235.893 181.681 232.912C184.577 229.931 185.025 224.877 182.702 221.432C184.313 224.141 185.993 226.931 188.55 228.776C191.107 230.621 194.798 231.28 197.39 229.488C199.985 227.696 200.294 223.083 197.507 221.605C201.062 223.805 206.291 222.603 208.523 219.067C210.755 215.533 209.595 210.293 206.081 208.029C207.83 212.069 212.854 214.355 217.049 213.019C221.243 211.68 224.017 206.907 223.102 202.6C222.347 199.043 219.161 196.216 215.609 195.613C214.593 195.44 213.987 194.443 214.305 193.461C215.067 191.099 214.915 188.432 213.809 186.205C212.273 183.107 208.726 181.944 205.523 180.72C204.886 180.477 204.409 179.723 204.473 179.043C205.315 170.011 204.523 167.736 201.19 161.944C199.006 158.152 193.958 153.989 183.675 153" fill="#FFE17A"/>
<path d="M166.187 98.5947H208.112C216.292 98.5947 222.923 91.9638 222.923 83.7841V38.0454C222.923 29.8657 216.292 23.2347 208.112 23.2347H166.187C158.007 23.2347 151.376 29.8657 151.376 38.0454V83.7841C151.376 91.9638 158.007 98.5947 166.187 98.5947Z" fill="#FF5662"/>
<path d="M163.156 63.6452L184.782 85.2719C185.974 86.4639 187.905 86.4639 189.097 85.2719L210.724 63.6452C212.646 61.7225 211.284 58.4372 208.566 58.4372H198.646V42.7945C198.646 40.3652 196.676 38.3945 194.246 38.3945H179.633C177.204 38.3945 175.233 40.3652 175.233 42.7945V58.4372H165.313C162.596 58.4372 161.236 61.7225 163.156 63.6452Z" fill="white"/>
</g>
<defs>
<clipPath id="clip0_40589_10507">
<rect width="360" height="360" fill="white"/>
</clipPath>
</defs>
</svg>
